<mxfile host="app.diagrams.net" modified="2022-03-18T16:05:21.444Z" agent="5.0 (Macintosh; Intel Mac OS X 10_15_6) AppleWebKit/605.1.15 (KHTML, like Gecko) Version/15.3 Safari/605.1.15" etag="TZQh80RU6sDnvEshHRW7" version="17.1.3" type="github">
  <diagram id="g_bNF78hXMnXt8MwMhfZ" name="Page-1">
    <mxGraphModel dx="2803" dy="1227" grid="1" gridSize="10" guides="1" tooltips="1" connect="0" arrows="1" fold="1" page="1" pageScale="1" pageWidth="827" pageHeight="1169" math="0" shadow="0">
      <root>
        <mxCell id="0" />
        <mxCell id="1" parent="0" />
        <mxCell id="aKlmydDYFWNijX_7faFg-24" value="" style="rounded=1;arcSize=10;dashed=0;fillColor=none;gradientColor=none;strokeWidth=2;fontSize=18;" vertex="1" parent="1">
          <mxGeometry x="-100" y="240" width="495" height="330" as="geometry" />
        </mxCell>
        <mxCell id="HXco0iSima8W5jRV-XCO-18" value="" style="rounded=1;arcSize=10;dashed=0;fillColor=none;gradientColor=none;strokeWidth=2;fontSize=18;" parent="1" vertex="1">
          <mxGeometry x="-100" y="595" width="500" height="330" as="geometry" />
        </mxCell>
        <mxCell id="HXco0iSima8W5jRV-XCO-13" value="" style="rounded=1;arcSize=10;dashed=1;strokeColor=#F59D56;fillColor=none;gradientColor=none;dashPattern=8 4;strokeWidth=2;" parent="1" vertex="1">
          <mxGeometry x="150" y="280" width="220" height="610" as="geometry" />
        </mxCell>
        <mxCell id="HXco0iSima8W5jRV-XCO-8" value="" style="rounded=1;arcSize=10;dashed=1;fillColor=none;gradientColor=none;dashPattern=8 3 1 3;strokeWidth=2;" parent="1" vertex="1">
          <mxGeometry x="180" y="630" width="159.5" height="210" as="geometry" />
        </mxCell>
        <mxCell id="HXco0iSima8W5jRV-XCO-9" value="" style="rounded=1;arcSize=10;dashed=1;fillColor=none;gradientColor=none;dashPattern=8 3 1 3;strokeWidth=2;" parent="1" vertex="1">
          <mxGeometry x="180" y="340" width="159.5" height="200" as="geometry" />
        </mxCell>
        <mxCell id="heWSyna7I_I_LGVK5BIx-6" value="" style="outlineConnect=0;dashed=0;verticalLabelPosition=bottom;verticalAlign=top;align=center;html=1;shape=mxgraph.aws3.ecs;fillColor=#F58534;gradientColor=none;" parent="1" vertex="1">
          <mxGeometry x="160" y="250" width="82.67" height="77.5" as="geometry" />
        </mxCell>
        <mxCell id="heWSyna7I_I_LGVK5BIx-9" value="" style="rounded=0;whiteSpace=wrap;html=1;" parent="1" vertex="1">
          <mxGeometry x="199.75" y="650" width="120" height="60" as="geometry" />
        </mxCell>
        <mxCell id="heWSyna7I_I_LGVK5BIx-10" value="" style="sketch=0;points=[[0,0,0],[0.25,0,0],[0.5,0,0],[0.75,0,0],[1,0,0],[0,1,0],[0.25,1,0],[0.5,1,0],[0.75,1,0],[1,1,0],[0,0.25,0],[0,0.5,0],[0,0.75,0],[1,0.25,0],[1,0.5,0],[1,0.75,0]];outlineConnect=0;fontColor=#232F3E;gradientColor=#F78E04;gradientDirection=north;fillColor=#D05C17;strokeColor=#ffffff;dashed=0;verticalLabelPosition=bottom;verticalAlign=top;align=center;html=1;fontSize=12;fontStyle=0;aspect=fixed;shape=mxgraph.aws4.resourceIcon;resIcon=mxgraph.aws4.fargate;" parent="1" vertex="1">
          <mxGeometry x="199.75" y="650" width="30" height="30" as="geometry" />
        </mxCell>
        <mxCell id="heWSyna7I_I_LGVK5BIx-11" value="" style="rounded=0;whiteSpace=wrap;html=1;" parent="1" vertex="1">
          <mxGeometry x="199.75" y="440" width="120" height="60" as="geometry" />
        </mxCell>
        <mxCell id="heWSyna7I_I_LGVK5BIx-12" value="" style="sketch=0;points=[[0,0,0],[0.25,0,0],[0.5,0,0],[0.75,0,0],[1,0,0],[0,1,0],[0.25,1,0],[0.5,1,0],[0.75,1,0],[1,1,0],[0,0.25,0],[0,0.5,0],[0,0.75,0],[1,0.25,0],[1,0.5,0],[1,0.75,0]];outlineConnect=0;fontColor=#232F3E;gradientColor=#F78E04;gradientDirection=north;fillColor=#D05C17;strokeColor=#ffffff;dashed=0;verticalLabelPosition=bottom;verticalAlign=top;align=center;html=1;fontSize=12;fontStyle=0;aspect=fixed;shape=mxgraph.aws4.resourceIcon;resIcon=mxgraph.aws4.fargate;" parent="1" vertex="1">
          <mxGeometry x="199.75" y="440" width="30" height="30" as="geometry" />
        </mxCell>
        <mxCell id="heWSyna7I_I_LGVK5BIx-13" value="" style="rounded=0;whiteSpace=wrap;html=1;" parent="1" vertex="1">
          <mxGeometry x="199.75" y="360" width="120" height="60" as="geometry" />
        </mxCell>
        <mxCell id="heWSyna7I_I_LGVK5BIx-14" value="" style="sketch=0;points=[[0,0,0],[0.25,0,0],[0.5,0,0],[0.75,0,0],[1,0,0],[0,1,0],[0.25,1,0],[0.5,1,0],[0.75,1,0],[1,1,0],[0,0.25,0],[0,0.5,0],[0,0.75,0],[1,0.25,0],[1,0.5,0],[1,0.75,0]];outlineConnect=0;fontColor=#232F3E;gradientColor=#F78E04;gradientDirection=north;fillColor=#D05C17;strokeColor=#ffffff;dashed=0;verticalLabelPosition=bottom;verticalAlign=top;align=center;html=1;fontSize=12;fontStyle=0;aspect=fixed;shape=mxgraph.aws4.resourceIcon;resIcon=mxgraph.aws4.fargate;" parent="1" vertex="1">
          <mxGeometry x="199.75" y="360" width="30" height="30" as="geometry" />
        </mxCell>
        <mxCell id="HXco0iSima8W5jRV-XCO-1" value="" style="rounded=0;whiteSpace=wrap;html=1;" parent="1" vertex="1">
          <mxGeometry x="199.75" y="730" width="120" height="60" as="geometry" />
        </mxCell>
        <mxCell id="HXco0iSima8W5jRV-XCO-2" value="" style="sketch=0;points=[[0,0,0],[0.25,0,0],[0.5,0,0],[0.75,0,0],[1,0,0],[0,1,0],[0.25,1,0],[0.5,1,0],[0.75,1,0],[1,1,0],[0,0.25,0],[0,0.5,0],[0,0.75,0],[1,0.25,0],[1,0.5,0],[1,0.75,0]];outlineConnect=0;fontColor=#232F3E;gradientColor=#F78E04;gradientDirection=north;fillColor=#D05C17;strokeColor=#ffffff;dashed=0;verticalLabelPosition=bottom;verticalAlign=top;align=center;html=1;fontSize=12;fontStyle=0;aspect=fixed;shape=mxgraph.aws4.resourceIcon;resIcon=mxgraph.aws4.fargate;" parent="1" vertex="1">
          <mxGeometry x="199.75" y="730" width="30" height="30" as="geometry" />
        </mxCell>
        <mxCell id="HXco0iSima8W5jRV-XCO-14" value="Fargate&lt;br&gt;AP" style="text;html=1;align=center;verticalAlign=middle;resizable=0;points=[];autosize=1;strokeColor=none;fillColor=none;" parent="1" vertex="1">
          <mxGeometry x="230" y="805" width="60" height="30" as="geometry" />
        </mxCell>
        <mxCell id="HXco0iSima8W5jRV-XCO-15" value="Fargate&lt;br&gt;Web" style="text;html=1;align=center;verticalAlign=middle;resizable=0;points=[];autosize=1;strokeColor=none;fillColor=none;" parent="1" vertex="1">
          <mxGeometry x="230" y="505" width="60" height="30" as="geometry" />
        </mxCell>
        <mxCell id="HXco0iSima8W5jRV-XCO-17" value="&lt;font style=&quot;font-size: 18px&quot;&gt;ECS Cluster&lt;br&gt;&lt;/font&gt;" style="text;html=1;align=center;verticalAlign=middle;resizable=0;points=[];autosize=1;strokeColor=none;fillColor=none;" parent="1" vertex="1">
          <mxGeometry x="204.75" y="860" width="110" height="20" as="geometry" />
        </mxCell>
        <mxCell id="HXco0iSima8W5jRV-XCO-19" value="" style="dashed=0;html=1;shape=mxgraph.aws3.permissions;fillColor=#D9A741;gradientColor=none;dashed=0;fontSize=18;" parent="1" vertex="1">
          <mxGeometry x="-40" y="580" width="30" height="35" as="geometry" />
        </mxCell>
        <mxCell id="aKlmydDYFWNijX_7faFg-1" value="" style="outlineConnect=0;dashed=0;verticalLabelPosition=bottom;verticalAlign=top;align=center;html=1;shape=mxgraph.aws3.elastic_network_interface;fillColor=#F58534;gradientColor=none;fontSize=18;" vertex="1" parent="1">
          <mxGeometry x="40" y="739.65" width="39" height="40.7" as="geometry" />
        </mxCell>
        <mxCell id="aKlmydDYFWNijX_7faFg-2" value="" style="outlineConnect=0;dashed=0;verticalLabelPosition=bottom;verticalAlign=top;align=center;html=1;shape=mxgraph.aws3.elastic_network_interface;fillColor=#F58534;gradientColor=none;fontSize=18;" vertex="1" parent="1">
          <mxGeometry x="40" y="659.65" width="39" height="40.7" as="geometry" />
        </mxCell>
        <mxCell id="aKlmydDYFWNijX_7faFg-20" value="Private subnet&lt;br&gt;10.0.1.0/24" style="text;html=1;align=center;verticalAlign=middle;resizable=0;points=[];autosize=1;strokeColor=none;fillColor=none;fontSize=12;" vertex="1" parent="1">
          <mxGeometry x="-7.33" y="610" width="90" height="30" as="geometry" />
        </mxCell>
        <mxCell id="aKlmydDYFWNijX_7faFg-3" value="&lt;font style=&quot;font-size: 12px&quot;&gt;ENI&lt;br&gt;Private IP&amp;nbsp;10.0.1.1&lt;/font&gt;" style="text;html=1;align=center;verticalAlign=middle;resizable=0;points=[];autosize=1;strokeColor=none;fillColor=none;fontSize=18;" vertex="1" parent="1">
          <mxGeometry x="4.5" y="780.35" width="110" height="50" as="geometry" />
        </mxCell>
        <mxCell id="aKlmydDYFWNijX_7faFg-21" value="&lt;font style=&quot;font-size: 12px&quot;&gt;ENI&lt;br&gt;Private IP&amp;nbsp;10.0.1.2&lt;/font&gt;" style="text;html=1;align=center;verticalAlign=middle;resizable=0;points=[];autosize=1;strokeColor=none;fillColor=none;fontSize=18;" vertex="1" parent="1">
          <mxGeometry x="4.500000000000002" y="689.65" width="110" height="50" as="geometry" />
        </mxCell>
        <mxCell id="aKlmydDYFWNijX_7faFg-22" value="" style="endArrow=none;html=1;rounded=0;fontSize=12;" edge="1" parent="1" target="heWSyna7I_I_LGVK5BIx-9">
          <mxGeometry width="50" height="50" relative="1" as="geometry">
            <mxPoint x="80" y="680" as="sourcePoint" />
            <mxPoint x="130" y="630" as="targetPoint" />
          </mxGeometry>
        </mxCell>
        <mxCell id="aKlmydDYFWNijX_7faFg-23" value="" style="endArrow=none;html=1;rounded=0;fontSize=12;" edge="1" parent="1" source="HXco0iSima8W5jRV-XCO-1" target="aKlmydDYFWNijX_7faFg-1">
          <mxGeometry width="50" height="50" relative="1" as="geometry">
            <mxPoint x="90" y="690" as="sourcePoint" />
            <mxPoint x="209.75" y="690" as="targetPoint" />
          </mxGeometry>
        </mxCell>
        <mxCell id="aKlmydDYFWNijX_7faFg-25" value="" style="dashed=0;html=1;shape=mxgraph.aws3.permissions;fillColor=#D9A741;gradientColor=none;dashed=0;fontSize=18;" vertex="1" parent="1">
          <mxGeometry x="-70" y="230" width="30" height="35" as="geometry" />
        </mxCell>
        <mxCell id="aKlmydDYFWNijX_7faFg-26" value="Public subnet&lt;br&gt;10.0.0.0/24" style="text;html=1;align=center;verticalAlign=middle;resizable=0;points=[];autosize=1;strokeColor=none;fillColor=none;fontSize=12;" vertex="1" parent="1">
          <mxGeometry x="-30.000000000000057" y="250" width="90" height="30" as="geometry" />
        </mxCell>
        <mxCell id="aKlmydDYFWNijX_7faFg-27" value="" style="outlineConnect=0;dashed=0;verticalLabelPosition=bottom;verticalAlign=top;align=center;html=1;shape=mxgraph.aws3.application_load_balancer;fillColor=#F58534;gradientColor=none;rounded=1;fontFamily=Helvetica;fontSize=18;fontColor=default;strokeColor=default;strokeWidth=2;" vertex="1" parent="1">
          <mxGeometry x="-69.16" y="390" width="38.33" height="40" as="geometry" />
        </mxCell>
        <mxCell id="aKlmydDYFWNijX_7faFg-28" value="&lt;font style=&quot;font-size: 12px&quot;&gt;ALB&lt;br&gt;Public IP x.x.x.x&lt;/font&gt;" style="text;html=1;align=center;verticalAlign=middle;resizable=0;points=[];autosize=1;strokeColor=none;fillColor=none;fontSize=18;fontFamily=Helvetica;fontColor=default;" vertex="1" parent="1">
          <mxGeometry x="-99.99999999999997" y="430" width="100" height="50" as="geometry" />
        </mxCell>
        <mxCell id="aKlmydDYFWNijX_7faFg-31" value="" style="outlineConnect=0;dashed=0;verticalLabelPosition=bottom;verticalAlign=top;align=center;html=1;shape=mxgraph.aws3.elastic_network_interface;fillColor=#F58534;gradientColor=none;fontSize=18;" vertex="1" parent="1">
          <mxGeometry x="50" y="450" width="39" height="40.7" as="geometry" />
        </mxCell>
        <mxCell id="aKlmydDYFWNijX_7faFg-32" value="" style="outlineConnect=0;dashed=0;verticalLabelPosition=bottom;verticalAlign=top;align=center;html=1;shape=mxgraph.aws3.elastic_network_interface;fillColor=#F58534;gradientColor=none;fontSize=18;" vertex="1" parent="1">
          <mxGeometry x="50" y="370" width="39" height="40.7" as="geometry" />
        </mxCell>
        <mxCell id="aKlmydDYFWNijX_7faFg-33" value="" style="endArrow=none;html=1;rounded=0;fontSize=12;" edge="1" parent="1" target="aKlmydDYFWNijX_7faFg-31" source="heWSyna7I_I_LGVK5BIx-11">
          <mxGeometry width="50" height="50" relative="1" as="geometry">
            <mxPoint x="209.75" y="470.35" as="sourcePoint" />
            <mxPoint x="219.75" y="400.35" as="targetPoint" />
          </mxGeometry>
        </mxCell>
        <mxCell id="aKlmydDYFWNijX_7faFg-35" value="" style="endArrow=none;html=1;rounded=0;fontSize=12;" edge="1" parent="1" source="heWSyna7I_I_LGVK5BIx-13" target="aKlmydDYFWNijX_7faFg-32">
          <mxGeometry width="50" height="50" relative="1" as="geometry">
            <mxPoint x="219.75" y="480.35" as="sourcePoint" />
            <mxPoint x="99" y="480.35" as="targetPoint" />
          </mxGeometry>
        </mxCell>
        <mxCell id="aKlmydDYFWNijX_7faFg-36" value="" style="endArrow=classic;html=1;rounded=0;fontFamily=Helvetica;fontSize=12;fontColor=default;" edge="1" parent="1" source="aKlmydDYFWNijX_7faFg-27" target="aKlmydDYFWNijX_7faFg-32">
          <mxGeometry width="50" height="50" relative="1" as="geometry">
            <mxPoint x="-30" y="540" as="sourcePoint" />
            <mxPoint x="20" y="490" as="targetPoint" />
          </mxGeometry>
        </mxCell>
        <mxCell id="aKlmydDYFWNijX_7faFg-37" value="" style="endArrow=classic;html=1;rounded=0;fontFamily=Helvetica;fontSize=12;fontColor=default;" edge="1" parent="1" source="aKlmydDYFWNijX_7faFg-27" target="aKlmydDYFWNijX_7faFg-31">
          <mxGeometry width="50" height="50" relative="1" as="geometry">
            <mxPoint x="-20.830000000000155" y="416.8484685551697" as="sourcePoint" />
            <mxPoint x="60" y="403.55661952382945" as="targetPoint" />
          </mxGeometry>
        </mxCell>
        <mxCell id="aKlmydDYFWNijX_7faFg-38" value="&lt;font style=&quot;font-size: 12px&quot;&gt;ENI&lt;br&gt;Private IP&amp;nbsp;10.0.0.2&lt;/font&gt;" style="text;html=1;align=center;verticalAlign=middle;resizable=0;points=[];autosize=1;strokeColor=none;fillColor=none;fontSize=18;" vertex="1" parent="1">
          <mxGeometry x="14.500000000000002" y="400" width="110" height="50" as="geometry" />
        </mxCell>
        <mxCell id="aKlmydDYFWNijX_7faFg-39" value="&lt;font style=&quot;font-size: 12px&quot;&gt;ENI&lt;br&gt;Private IP&amp;nbsp;10.0.0.1&lt;/font&gt;" style="text;html=1;align=center;verticalAlign=middle;resizable=0;points=[];autosize=1;strokeColor=none;fillColor=none;fontSize=18;" vertex="1" parent="1">
          <mxGeometry x="14.5" y="490" width="110" height="50" as="geometry" />
        </mxCell>
      </root>
    </mxGraphModel>
  </diagram>
</mxfile>
